<?xml version="1.0" standalone="no"?>
<!DOCTYPE svg PUBLIC "-//W3C//DTD SVG 20010904//EN"
 "http://www.w3.org/TR/2001/REC-SVG-20010904/DTD/svg10.dtd">
<svg version="1.0" xmlns="http://www.w3.org/2000/svg"
 width="423.000000pt" height="423.000000pt" viewBox="0 0 423.000000 423.000000"
 preserveAspectRatio="xMidYMid meet">
<metadata>
Created by potrace 1.11, written by Peter Selinger 2001-2013
</metadata>
<g transform="translate(0.000000,423.000000) scale(0.100000,-0.100000)"
fill="#000000" stroke="none">
<path d="M1960 4124 c-69 -42 -140 -82 -159 -90 -18 -9 -45 -24 -60 -35 -14
-10 -341 -203 -726 -427 l-700 -409 -2 -1059 -3 -1059 192 -110 c105 -60 196
-115 203 -121 6 -7 29 -20 51 -31 38 -19 249 -140 509 -293 672 -395 823 -480
855 -480 24 0 76 25 187 90 84 50 173 99 197 109 24 11 45 23 47 28 2 5 54 37
114 72 61 35 180 105 265 156 85 50 180 105 210 122 30 16 105 59 165 95 61
36 205 120 320 186 116 67 231 134 257 149 l48 28 -3 1059 -2 1059 -374 218
c-206 121 -384 228 -396 239 -12 11 -31 22 -41 24 -24 5 -790 451 -817 477
-12 10 -26 19 -33 19 -7 0 -36 14 -64 30 -74 44 -96 40 -240 -46z"/>
</g>
</svg>
